<?xml version="1.0" standalone="no"?>
<!DOCTYPE svg PUBLIC "-//W3C//DTD SVG 20010904//EN"
 "http://www.w3.org/TR/2001/REC-SVG-20010904/DTD/svg10.dtd">
<svg version="1.0" xmlns="http://www.w3.org/2000/svg"
 width="476.000000pt" height="473.000000pt" viewBox="0 0 476.000000 473.000000"
 preserveAspectRatio="xMidYMid meet">

<g transform="translate(0.000000,473.000000) scale(0.100000,-0.100000)"
fill="#000000" stroke="none">
<path d="M3256 4410 c-91 -28 -113 -141 -38 -200 21 -17 40 -20 138 -20 111 0
114 1 146 29 29 26 33 36 33 79 0 87 -55 123 -185 121 -36 0 -78 -5 -94 -9z
m213 -35 c93 -47 26 -194 -70 -155 -44 19 -66 68 -49 110 12 29 50 59 78 60 7
0 26 -7 41 -15z"/>
<path d="M1102 4337 l-32 -33 35 -34 c41 -40 61 -33 22 8 l-27 28 25 24 c25
24 32 40 17 40 -4 0 -22 -15 -40 -33z"/>
<path d="M1954 4325 c-7 -18 3 -35 22 -35 8 0 14 -5 14 -11 0 -6 -9 -9 -20 -6
-24 6 -27 -8 -4 -17 17 -7 54 10 54 24 0 5 -12 16 -27 24 -26 14 -27 15 -5 16
31 0 28 20 -3 20 -14 0 -28 -7 -31 -15z"/>
<path d="M2290 4325 c0 -8 -6 -12 -13 -9 -8 3 -20 -2 -27 -11 -19 -23 -1 -49
34 -52 24 -2 26 1 26 43 0 24 -4 44 -10 44 -5 0 -10 -7 -10 -15z m0 -40 c0 -8
-4 -15 -10 -15 -5 0 -10 7 -10 15 0 8 5 15 10 15 6 0 10 -7 10 -15z"/>
<path d="M2403 4329 c-14 -14 -6 -39 12 -39 8 0 17 -5 21 -12 5 -8 0 -9 -14
-6 -25 7 -40 -7 -18 -15 45 -18 77 30 34 51 l-23 11 23 0 c12 1 22 6 22 11 0
14 -43 13 -57 -1z"/>
<path d="M2048 4313 c-13 -3 -18 -15 -18 -44 0 -21 5 -39 10 -39 6 0 10 7 10
15 0 9 6 12 15 9 8 -4 17 1 21 10 5 14 8 14 29 0 13 -9 30 -12 36 -8 9 5 7 10
-7 15 -17 7 -17 8 -1 8 21 1 23 29 2 38 -9 3 -24 -2 -34 -11 -16 -15 -19 -15
-24 -1 -7 15 -9 16 -39 8z m22 -28 c0 -8 -4 -15 -10 -15 -5 0 -10 7 -10 15 0
8 5 15 10 15 6 0 10 -7 10 -15z"/>
<path d="M2188 4313 c-19 -5 -25 -48 -8 -58 6 -3 10 3 10 14 0 11 5 23 10 26
6 3 10 -3 10 -14 0 -11 5 -23 11 -26 7 -5 9 4 7 26 -3 34 -11 40 -40 32z"/>
<path d="M2337 4302 c-13 -15 -13 -19 -1 -30 12 -11 17 -10 30 2 13 14 14 18
1 31 -13 12 -17 12 -30 -3z"/>
<path d="M2479 4303 c-17 -20 1 -47 32 -47 16 0 25 7 30 24 4 14 7 20 8 14 1
-5 7 -19 15 -29 13 -18 14 -17 30 13 15 29 7 47 -10 21 -4 -7 -9 -7 -13 -2
-12 18 -79 23 -92 6z m35 -24 c-3 -5 -10 -7 -15 -3 -5 3 -7 10 -3 15 3 5 10 7
15 3 5 -3 7 -10 3 -15z"/>
<path d="M2622 4308 c-7 -7 -12 -18 -12 -25 0 -17 33 -33 49 -23 11 6 10 9 -5
13 -16 4 -17 5 -1 6 21 1 23 27 1 35 -20 8 -18 8 -32 -6z"/>
<path d="M1897 3784 c-15 -16 -6 -23 23 -17 23 4 30 2 30 -10 0 -9 -13 -32
-30 -50 -42 -49 -39 -59 18 -55 47 3 62 20 22 26 l-20 3 21 30 c31 43 22 73
-21 77 -20 2 -39 0 -43 -4z"/>
<path d="M2010 3749 c0 -40 1 -40 29 -34 33 7 49 -8 31 -30 -8 -10 -18 -11
-36 -5 -18 7 -24 6 -24 -4 0 -33 64 -34 85 -2 21 32 5 66 -30 66 -16 0 -25 6
-25 15 0 10 10 15 30 15 17 0 30 5 30 10 0 6 -20 10 -45 10 l-45 0 0 -41z"/>
<path d="M2180 3771 c-36 -68 25 -155 74 -105 19 18 22 94 4 112 -19 19 -66
15 -78 -7z m58 -50 c3 -37 1 -42 -15 -39 -19 3 -30 46 -19 75 11 28 31 7 34
-36z"/>
<path d="M2321 3748 c-37 -51 -39 -68 -6 -68 13 0 29 -8 34 -17 10 -17 12 -17
26 2 9 11 13 26 10 33 -3 8 -5 31 -5 53 0 52 -19 51 -59 -3z m29 -27 c0 -12
-20 -25 -27 -18 -7 7 6 27 18 27 5 0 9 -4 9 -9z"/>
<path d="M2422 3778 c-7 -7 -12 -33 -12 -58 0 -51 13 -70 46 -70 44 0 67 61
42 115 -12 27 -54 35 -76 13z m54 -32 c8 -35 1 -60 -19 -64 -14 -3 -17 4 -17
36 0 55 24 74 36 28z"/>
<path d="M2580 3749 c0 -40 0 -40 30 -34 23 5 32 3 36 -10 9 -21 -10 -33 -42
-27 -35 7 -29 -15 7 -23 22 -5 36 -2 50 11 34 31 18 74 -28 74 -14 0 -23 6
-23 15 0 10 10 15 30 15 17 0 30 5 30 10 0 6 -20 10 -45 10 l-45 0 0 -41z"/>
<path d="M2707 3783 c-14 -13 -6 -22 19 -20 32 2 43 -19 15 -28 -27 -8 -27
-25 -1 -25 12 0 20 -7 20 -16 0 -11 -8 -15 -32 -12 -39 4 -50 -19 -13 -28 35
-9 75 10 75 35 0 11 -4 23 -10 26 -6 4 -5 13 2 25 9 14 9 22 -1 34 -13 16 -62
22 -74 9z"/>
<path d="M1806 3725 c-4 -14 -2 -33 3 -43 9 -15 11 -14 11 8 l1 25 11 -22 c6
-13 15 -23 19 -23 14 0 21 48 10 67 -10 17 -10 17 -11 1 0 -10 -4 -18 -10 -18
-5 0 -10 7 -10 15 0 24 -17 17 -24 -10z"/>
<path d="M2120 3671 c0 -20 13 -41 21 -35 15 9 10 44 -6 44 -8 0 -15 -4 -15
-9z"/>
<path d="M2530 3665 c0 -8 7 -15 15 -15 8 0 15 7 15 15 0 8 -7 15 -15 15 -8 0
-15 -7 -15 -15z"/>
<path d="M1810 3338 c1 -36 3 -40 13 -27 7 8 20 18 30 22 28 10 17 41 -16 45
-26 3 -27 1 -27 -40z"/>
<path d="M2564 3369 c-4 -7 4 -20 17 -30 l24 -19 -25 0 c-22 -1 -23 -2 -7 -11
10 -6 25 -8 33 -5 22 8 17 36 -8 46 l-23 9 23 0 c13 1 20 5 17 11 -8 14 -42
13 -51 -1z"/>
<path d="M2156 3361 c-8 -12 10 -61 23 -61 13 0 8 63 -6 67 -6 2 -14 0 -17 -6z"/>
<path d="M2426 3361 c-8 -12 10 -61 23 -61 13 0 8 63 -6 67 -6 2 -14 0 -17 -6z"/>
<path d="M1883 3349 c-15 -15 1 -49 22 -49 21 0 19 18 -2 23 -16 4 -16 5 0 6
10 0 17 6 15 13 -6 17 -22 20 -35 7z"/>
<path d="M1933 3343 c-3 -7 -2 -21 1 -30 6 -14 9 -12 21 11 18 35 18 33 -1 33
-9 0 -18 -6 -21 -14z"/>
<path d="M1987 3353 c-13 -12 -7 -41 9 -47 23 -9 32 3 14 15 -11 8 -12 12 -2
16 6 2 12 9 12 14 0 10 -23 12 -33 2z"/>
<path d="M2037 3354 c-22 -23 9 -64 36 -47 7 4 3 9 -9 14 -18 7 -18 8 -1 8 10
1 17 7 15 14 -5 14 -31 21 -41 11z"/>
<path d="M2090 3333 c0 -12 5 -25 10 -28 6 -3 10 3 10 14 0 28 18 27 23 -1 3
-17 5 -14 6 9 1 29 -2 33 -24 31 -19 -2 -25 -8 -25 -25z"/>
<path d="M2204 3345 c-10 -24 4 -45 25 -42 11 2 23 6 26 9 8 8 45 -2 45 -13 0
-5 -7 -6 -15 -3 -8 4 -15 1 -15 -6 0 -6 10 -10 23 -8 18 2 23 10 25 41 3 31 0
37 -15 37 -11 0 -24 -5 -30 -11 -8 -8 -13 -8 -17 0 -10 16 -46 13 -52 -4z m36
-15 c0 -5 -4 -10 -10 -10 -5 0 -10 5 -10 10 0 6 5 10 10 10 6 0 10 -4 10 -10z
m60 0 c0 -5 -2 -10 -4 -10 -3 0 -8 5 -11 10 -3 6 -1 10 4 10 6 0 11 -4 11 -10z"/>
<path d="M2336 3344 c-8 -22 17 -49 35 -38 9 5 8 9 -7 15 -18 7 -18 8 -1 8 10
1 17 7 15 14 -7 19 -35 20 -42 1z"/>
<path d="M2477 3354 c-10 -10 -9 -42 2 -48 18 -11 42 6 39 28 -3 21 -28 33
-41 20z m23 -24 c0 -5 -2 -10 -4 -10 -3 0 -8 5 -11 10 -3 6 -1 10 4 10 6 0 11
-4 11 -10z"/>
<path d="M2637 3353 c-11 -10 -8 -43 3 -44 40 -5 45 -3 48 24 3 23 0 27 -21
27 -13 0 -27 -3 -30 -7z m33 -23 c0 -5 -4 -10 -10 -10 -5 0 -10 5 -10 10 0 6
5 10 10 10 6 0 10 -4 10 -10z"/>
<path d="M2700 3349 c0 -8 6 -24 14 -34 13 -18 14 -18 25 4 7 12 10 27 8 34
-3 8 -7 5 -12 -6 -7 -17 -8 -17 -21 0 -11 15 -13 15 -14 2z"/>
<path d="M2767 3353 c-13 -12 -7 -41 9 -47 22 -9 32 3 14 14 -13 8 -12 10 2
10 11 0 15 5 12 15 -6 16 -26 20 -37 8z"/>
<path d="M3000 3063 c-28 -10 -70 -56 -81 -90 -15 -46 -4 -95 29 -131 86 -92
242 -32 242 94 0 41 -29 92 -65 114 -31 19 -91 25 -125 13z m81 -115 c28 -4
29 -22 2 -26 -15 -2 -23 -10 -23 -23 0 -10 -4 -19 -10 -19 -5 0 -10 8 -10 19
0 11 -9 21 -21 24 -22 6 -18 27 5 27 8 0 17 10 21 23 l8 22 4 -22 c2 -12 13
-23 24 -25z"/>
<path d="M4087 3034 c-83 -35 -125 -64 -219 -149 -54 -49 -113 -91 -170 -121
-49 -25 -88 -48 -88 -51 0 -12 152 -253 159 -253 16 0 118 38 160 59 23 12 75
55 116 95 79 80 131 119 213 160 28 14 52 29 52 32 0 11 -152 254 -158 253 -4
0 -33 -12 -65 -25z m120 -124 l61 -99 -46 -16 c-26 -8 -67 -26 -91 -40 -52
-30 -61 -31 -61 -5 0 48 -50 108 -108 132 l-34 13 48 34 c39 29 145 80 164 81
3 0 33 -45 67 -100z m-232 -110 c4 -6 11 -7 17 -4 7 4 8 2 4 -4 -4 -7 -3 -12
1 -12 5 0 9 -9 10 -21 2 -17 -3 -19 -27 -15 -26 4 -29 2 -20 -14 14 -27 12
-34 -5 -20 -8 6 -20 8 -26 4 -8 -4 -9 -3 -5 4 4 6 2 21 -4 33 -15 27 -10 31
28 20 l31 -9 -15 24 c-9 13 -12 24 -6 24 6 0 14 -5 17 -10z m-111 -100 c16
-32 34 -51 65 -67 l42 -21 -35 -27 c-37 -28 -125 -65 -154 -65 -20 1 -129 178
-116 190 5 4 30 15 55 24 25 10 59 26 75 37 29 19 29 19 37 -4 5 -12 18 -42
31 -67z"/>
<path d="M2195 2970 c-3 -5 -1 -10 6 -10 8 0 10 -13 6 -40 -5 -36 -3 -40 16
-40 16 0 18 3 9 12 -7 7 -12 29 -12 50 0 36 -12 49 -25 28z"/>
<path d="M2266 2964 c-20 -52 15 -101 48 -68 23 23 18 84 -6 84 -6 0 -6 -6 2
-14 18 -23 9 -61 -15 -61 -24 0 -33 38 -15 61 8 8 8 14 2 14 -5 0 -13 -7 -16
-16z"/>
<path d="M2346 2963 c-6 -14 -5 -15 5 -6 7 7 10 15 7 18 -3 3 -9 -2 -12 -12z"/>
<path d="M2380 2948 c5 -17 6 -37 2 -43 -4 -6 1 -2 11 8 14 16 17 16 17 4 0
-9 3 -18 8 -20 4 -3 7 5 7 18 0 13 -3 21 -7 18 -12 -7 -9 12 4 25 6 6 9 14 6
18 -4 3 -13 -7 -22 -23 l-15 -28 -1 28 c0 15 -4 27 -9 27 -6 0 -6 -12 -1 -32z"/>
<path d="M1422 2930 c0 -19 2 -27 5 -17 2 9 2 25 0 35 -3 9 -5 1 -5 -18z"/>
<path d="M1692 2930 c0 -19 2 -27 5 -17 2 9 2 25 0 35 -3 9 -5 1 -5 -18z"/>
<path d="M1533 2933 c15 -2 39 -2 55 0 15 2 2 4 -28 4 -30 0 -43 -2 -27 -4z"/>
<path d="M2445 2915 c0 -13 3 -21 8 -18 4 2 7 10 7 18 0 8 -3 16 -7 18 -5 3
-8 -5 -8 -18z"/>
<path d="M608 2586 c-88 -36 -147 -74 -219 -142 -75 -70 -155 -125 -221 -150
-23 -10 -45 -18 -46 -20 -6 -4 149 -264 157 -264 16 0 119 38 160 60 24 12 87
63 141 114 67 63 122 105 173 132 l75 39 -76 128 c-42 70 -79 127 -82 127 -3
0 -30 -11 -62 -24z m114 -127 c57 -93 58 -94 36 -103 -13 -5 -52 -23 -88 -40
-36 -17 -68 -32 -71 -34 -4 -2 -10 10 -14 25 -13 53 -47 95 -94 116 l-45 20
38 33 c36 32 151 86 171 80 5 -1 35 -45 67 -97z m-205 -126 c4 3 8 -6 8 -19 0
-21 -4 -23 -32 -20 -31 4 -32 3 -22 -16 10 -19 9 -20 -7 -13 -11 4 -24 8 -31
8 -7 0 -9 5 -5 11 3 6 5 19 4 29 -4 20 -2 20 33 7 23 -9 25 -8 15 9 -15 30
-12 36 9 17 11 -10 23 -16 28 -13z m-162 -34 c9 -51 64 -116 109 -127 l31 -8
-45 -29 c-47 -30 -130 -65 -154 -65 -12 0 -110 147 -118 178 -2 7 20 22 53 35
30 13 66 31 79 40 34 24 37 22 45 -24z"/>
<path d="M2780 2582 c-75 -25 -131 -63 -196 -130 l-55 -57 36 -30 c19 -16 35
-38 35 -47 0 -13 8 -18 28 -18 15 0 48 -10 72 -22 87 -45 102 -126 80 -443
-22 -315 -22 -348 -5 -415 28 -107 73 -189 139 -255 113 -111 217 -149 365
-135 119 11 185 46 284 149 74 77 111 138 123 200 7 31 5 34 -12 27 -182 -75
-357 -14 -450 157 -40 73 -45 220 -15 397 32 187 37 273 17 350 -51 201 -265
332 -446 272z"/>
<path d="M2149 2347 c-102 -42 -170 -113 -210 -216 -20 -54 -44 -243 -34 -269
4 -11 17 -13 63 -7 178 21 352 102 488 228 l61 56 46 -72 c25 -40 58 -83 72
-97 l28 -25 -5 77 c-5 83 -42 176 -95 238 -83 99 -283 141 -414 87z"/>
<path d="M4466 2066 c-75 -32 -145 -80 -222 -153 -73 -69 -98 -122 -44 -93 15
8 19 5 25 -28 10 -55 49 -108 90 -123 19 -7 35 -17 35 -21 0 -13 -74 -58 -131
-79 l-53 -21 -17 21 c-10 12 -20 21 -23 21 -12 0 -5 -55 8 -73 13 -16 19 -17
58 -7 86 23 151 63 237 144 100 95 128 116 210 156 l60 30 -72 122 c-40 68
-79 124 -87 125 -8 2 -41 -8 -74 -21z m128 -120 c31 -52 56 -96 56 -99 0 -2
-19 -9 -42 -16 -24 -7 -66 -26 -94 -42 l-52 -29 -7 37 c-8 44 -83 123 -115
123 -11 0 -20 4 -20 8 0 24 190 129 211 117 3 -3 32 -47 63 -99z m-206 -122
c5 3 9 -8 9 -24 0 -27 -3 -28 -30 -23 -27 6 -29 5 -18 -16 13 -24 0 -29 -21
-8 -7 8 -19 12 -27 9 -10 -3 -11 0 -5 9 5 8 7 21 6 30 -2 13 3 15 24 11 24 -4
26 -3 19 19 -8 24 -7 24 13 6 11 -11 25 -16 30 -13z"/>
<path d="M2104 1787 c-11 -29 0 -72 19 -75 16 -3 18 2 15 39 -3 43 -23 64 -34
36z"/>
<path d="M2274 1787 c-10 -28 1 -200 14 -205 9 -3 12 23 12 107 0 70 -4 111
-10 111 -6 0 -13 -6 -16 -13z"/>
<path d="M2440 1754 c0 -59 24 -55 28 4 2 33 0 42 -12 42 -12 0 -16 -11 -16
-46z"/>
<path d="M2490 1605 c-7 -9 -21 -13 -31 -10 -24 8 -56 -10 -64 -35 -8 -24 18
-70 40 -70 24 0 6 -28 -33 -52 -20 -12 -56 -27 -81 -34 -47 -11 -64 -30 -37
-40 32 -12 120 24 164 67 40 40 72 111 72 160 0 25 -15 32 -30 14z"/>
<path d="M2068 1334 c-35 -18 -41 -42 -44 -184 -2 -63 -6 -179 -9 -257 -5
-106 -3 -143 6 -143 20 0 286 119 324 145 52 34 100 42 125 20 40 -36 27 -47
-145 -120 -123 -52 -165 -74 -165 -87 0 -10 4 -18 8 -18 5 0 80 31 168 70
l159 69 3 -30 c2 -17 1 -36 -1 -43 -3 -7 -78 -43 -167 -81 -148 -63 -184 -85
-166 -102 3 -3 76 24 162 61 87 36 159 64 163 61 3 -3 -3 -21 -13 -39 -19 -36
-83 -77 -188 -122 -38 -16 -68 -32 -68 -36 0 -4 -24 -20 -52 -34 -86 -43 -138
-83 -138 -105 0 -11 11 -31 25 -44 24 -25 26 -25 215 -25 189 0 191 0 215 25
14 13 25 33 25 44 0 30 -63 73 -154 103 l-80 27 80 36 c87 40 148 92 164 140
7 20 7 113 2 275 -5 135 -7 265 -4 289 5 51 -9 81 -48 104 -39 23 -360 24
-402 1z m100 -76 c17 -17 15 -53 -3 -68 -24 -20 -65 3 -65 34 0 37 43 59 68
34z m5 -308 c59 -25 107 -47 107 -50 0 -6 -90 -43 -105 -43 -7 0 -38 10 -69
22 l-56 23 0 50 c0 27 4 48 8 46 5 -1 57 -23 115 -48z m-55 -116 c4 -3 -53
-34 -63 -34 -3 0 -5 16 -5 35 l0 36 33 -17 c17 -9 34 -18 35 -20z"/>
</g>
</svg>
